<svg xmlns="http://www.w3.org/2000/svg" version="1.1" xmlns:xlink="http://www.w3.org/1999/xlink" xmlns:svgjs="http://svgjs.dev/svgjs" width="128" height="128" viewBox="0 0 128 128"><g transform="matrix(0.5722222222222222,0,0,0.5722222222222222,27.272307810933768,12.333870967741937)"><svg viewBox="0 0 110 155" data-background-color="#ffffff" preserveAspectRatio="xMidYMid meet" height="180" width="128" xmlns="http://www.w3.org/2000/svg" xmlns:xlink="http://www.w3.org/1999/xlink"><g id="tight-bounds" transform="matrix(1,0,0,1,0.158396946564892,0.25)"><svg viewBox="0 0 109.68320610687022 154.5" height="154.5" width="109.68320610687022"><g><svg viewBox="0 0 109.68320610687022 154.5" height="154.5" width="109.68320610687022"><g><svg viewBox="0 0 109.68320610687022 154.5" height="154.5" width="109.68320610687022"><g id="textblocktransform"><svg viewBox="0 0 109.68320610687022 154.5" height="154.5" width="109.68320610687022" id="textblock"><g><svg viewBox="0 0 109.68320610687022 154.5" height="154.5" width="109.68320610687022"><g transform="matrix(1,0,0,1,0,0)"><svg width="109.68320610687022" viewBox="0.85 -32.75 23.25 32.75" height="154.5" data-palette-color="#010c80"><path d="M3.75 0L0.85 0 10.25-32.75 15.05-32.75 24.1 0 21.15 0 19.1-7.55 5.85-7.55 3.75 0ZM6.55-10.05L18.45-10.05 13.05-30.25 12.2-30.25 6.55-10.05Z" opacity="1" transform="matrix(1,0,0,1,0,0)" fill="#000000" class="wordmark-text-0" data-fill-palette-color="primary" id="text-0"></path></svg></g></svg></g></svg></g></svg></g></svg></g><defs></defs></svg><rect width="109.68320610687022" height="154.5" fill="none" stroke="none" visibility="hidden"></rect></g></svg></g></svg>
