<svg xmlns="http://www.w3.org/2000/svg" version="1.1" xmlns:xlink="http://www.w3.org/1999/xlink" xmlns:svgjs="http://svgjs.dev/svgjs" width="1000" height="151" viewBox="0 0 1000 151"><g transform="matrix(1,0,0,1,-0.6060605664287664,0.6184875031231201)"><svg viewBox="0 0 396 60" data-background-color="#ffffff" preserveAspectRatio="xMidYMid meet" height="151" width="1000" xmlns="http://www.w3.org/2000/svg" xmlns:xlink="http://www.w3.org/1999/xlink"><g id="tight-bounds" transform="matrix(1,0,0,1,0.24000001569424967,-0.24575662375752927)"><svg viewBox="0 0 395.52 60.49151324751505" height="60.49151324751505" width="395.52"><g><svg viewBox="0 0 481.7935949687411 73.68634615852423" height="60.49151324751505" width="395.52"><g transform="matrix(1,0,0,1,0,10.183858260693295)"><svg viewBox="0 0 395.52 53.31862963713764" height="53.31862963713764" width="395.52"><g id="textblocktransform"><svg viewBox="0 0 395.52 53.31862963713764" height="53.31862963713764" width="395.52" id="textblock"><g><svg viewBox="0 0 395.52 53.31862963713764" height="53.31862963713764" width="395.52"><g transform="matrix(1,0,0,1,0,0)"><svg width="395.52" viewBox="0.8500000238418579 -32.75 246.62998962402344 33.25" height="53.31862963713764" data-palette-color="#010c80"><path d="M3.75 0L0.85 0 10.25-32.75 15.05-32.75 24.1 0 21.15 0 19.1-7.55 5.85-7.55 3.75 0ZM6.55-10.05L18.45-10.05 13.05-30.25 12.2-30.25 6.55-10.05ZM27.7-9.45L27.7-9.45 27.7-32.75 30.45-32.75 30.45-9.8Q30.45-2.1 37.5-2.1L37.5-2.1Q41.05-2.1 42.8-4.23 44.55-6.35 44.55-9.8L44.55-9.8 44.55-32.75 47.3-32.75 47.3-9.45Q47.3-4.6 44.77-2.05 42.25 0.5 37.4 0.5 32.55 0.5 30.12-2.15 27.7-4.8 27.7-9.45ZM59.6 0L53 0 53-32.75 59.7-32.75Q63.4-32.75 65.77-32.02 68.15-31.3 69.8-29.45 71.45-27.6 72.17-24.43 72.9-21.25 72.9-16.38 72.9-11.5 72.09-8.28 71.3-5.05 69.55-3.25 67.8-1.45 65.45-0.73 63.1 0 59.6 0L59.6 0ZM65.57-3.6Q67.7-4.7 68.82-7.73 69.95-10.75 69.95-16.38 69.95-22 68.84-25.03 67.75-28.05 65.65-29.15 63.55-30.25 59.7-30.25L59.7-30.25 55.75-30.25 55.75-2.5 59.6-2.5Q63.45-2.5 65.57-3.6ZM94.49 0L80.54 0 80.54-2.5 86.19-2.5 86.19-30.25 80.54-30.25 80.54-32.75 94.49-32.75 94.49-30.25 88.94-30.25 88.94-2.5 94.49-2.5 94.49 0ZM103.74 0L100.84 0 110.24-32.75 115.04-32.75 124.09 0 121.14 0 119.09-7.55 105.84-7.55 103.74 0ZM106.54-10.05L118.44-10.05 113.04-30.25 112.19-30.25 106.54-10.05ZM132.29-2.55L145.94-2.55 145.94 0 129.54 0 129.54-32.75 132.29-32.75 132.29-2.55ZM173.44-32.75L163.79-14.15 163.79 0 161.09 0 161.09-14.15 151.44-32.75 154.74-32.75 162.39-17 162.49-17 170.14-32.75 173.44-32.75ZM186.03-30.2L177.38-30.2 177.38-32.75 197.48-32.75 197.48-30.2 188.78-30.2 188.78 0 186.03 0 186.03-30.2ZM219.48 0L205.53 0 205.53-2.5 211.18-2.5 211.18-30.25 205.53-30.25 205.53-32.75 219.48-32.75 219.48-30.25 213.93-30.25 213.93-2.5 219.48-2.5 219.48 0ZM237.03-14.35L236.93-14.35 230.58 0 227.18 0 235.23-16.8 227.58-32.75 231.08-32.75 237.18-19.25 237.28-19.25 243.33-32.75 246.68-32.75 238.98-16.8 247.48 0 243.88 0 237.03-14.35Z" opacity="1" transform="matrix(1,0,0,1,0,0)" fill="#000000" class="wordmark-text-0" data-fill-palette-color="primary" id="text-0"></path></svg></g></svg></g></svg></g></svg></g><g transform="matrix(1,0,0,1,408.1072488102169,0)"><svg viewBox="0 0 73.68634615852423 73.68634615852423" height="73.68634615852423" width="73.68634615852423"><g data-palette-color="#77d4fc"><rect width="20.14093461666329" height="73.68634615852423" fill="#000000" stroke="transparent" data-fill-palette-color="accent" x="0" fill-opacity="1"></rect><rect width="20.14093461666329" height="73.68634615852423" fill="#000000" stroke="transparent" data-fill-palette-color="accent" x="24.562115386174746" fill-opacity="0.75"></rect><rect width="20.14093461666329" height="73.68634615852423" fill="#000000" stroke="transparent" data-fill-palette-color="accent" x="49.12423077234949" fill-opacity="0.5"></rect></g></svg></g></svg></g><defs></defs></svg><rect width="395.52" height="60.49151324751505" fill="none" stroke="none" visibility="hidden"></rect></g></svg></g></svg>
